<?xml version='1.0' encoding='utf-8'?>
<svg xmlns="http://www.w3.org/2000/svg" viewBox="0 0 112.07 173.99"> <g transform="matrix(1.3122 0 0 1.3122 -639.66 -914.1)" fill="#fff" fill-opacity=".99219" stroke="#000" stroke-linecap="round" stroke-linejoin="round"> <path d="m488.27 715.75 71.371-18.397c2.0173-0.24467 4.7322 0.24616 4.8484 2.5363l-0.13748 9.914-71 17.329-5.0812-11.383z" stroke-width="1.346"/> <path d="m567.55 706.23c-4.8629-1.2852-8.2512-2.5954-8.7489-5.6267l-68.868 17.995c0.31272 5.0712 4.384 4.1654 8.131 5.8023l69.486-18.171z" stroke-width=".67299"/> <path d="m496.38 724.23 7.0684 104.28 59.221-15.943c4.4839-1.0508 5.5237-3.3188 5.9726-7.0601l3.5671-93.557c-0.01327-7.0135-2.0125-7.6353-6.5113-6.7244l-69.318 19.007z" stroke-width="1.346"/> <path d="m503.56 828.52c-3.4841 0.16625-10.585-0.18257-14.921-6.8693l-0.49279-106c3.5346 5.712 11.088 6.9704 15.517 6.3646l-0.10319 106.5z" stroke-width="1.346"/> <path d="m548.36 699.27 12.135 7.1314-3.1544 108.26-5.0579 1.3665 2.708-107.07 0.03164-1.2511-12.135-6.9546 5.4726-1.4821z" stroke-width=".67299"/> </g> </svg>